<svg xmlns="http://www.w3.org/2000/svg" width="20" height="20" fill="#fff" fill-rule="evenodd">
    <path d="m9.975 12.015-1.633 1.633a.613.613 0 0 0 0 .866l1.633 1.633a.613.613 0 0 0 .866-.866l-1.2-1.199 1.2-1.2a.613.613 0 0 0-.866-.866zm2.041-1.993 1.633 1.633a.613.613 0 0 0 .866 0l1.633-1.633a.613.613 0 0 0-.866-.866l-1.2 1.2-1.2-1.2a.613.613 0 0 0-.866.866z"/>
    <path d="M6.37 13.141c-1.867-.354-3.405-.965-4.332-1.75-.5-.423-.814-.884-.814-1.393 0-.722.6-1.342 1.512-1.883C4.374 7.144 7.021 6.529 10 6.529s5.626.615 7.264 1.586c.913.541 1.512 1.162 1.512 1.883s-.6 1.342-1.512 1.883c-1.638.971-4.284 1.586-7.264 1.586H8.775a.612.612 0 1 0 0 1.224H10c3.238 0 6.108-.702 7.888-1.758C19.254 12.125 20 11.08 20 9.999s-.746-2.126-2.112-2.936c-1.78-1.057-4.65-1.758-7.888-1.758s-6.108.702-7.888 1.758C.746 7.872 0 8.918 0 9.999c0 .831.429 1.634 1.247 2.327 1.05.889 2.778 1.617 4.895 2.018a.613.613 0 1 0 .228-1.204z"/>
    <path d="M13.142 13.63c-.354 1.867-.965 3.405-1.75 4.332-.423.5-.884.814-1.393.814-.722 0-1.342-.6-1.883-1.512C7.145 15.626 6.53 12.98 6.53 10s.615-5.626 1.586-7.264C8.658 1.824 9.278 1.224 10 1.224s1.342.6 1.883 1.512c.971 1.638 1.586 4.284 1.586 7.264v1.225a.612.612 0 1 0 1.224 0V10c0-3.238-.702-6.108-1.758-7.888C12.126.746 11.081 0 10 0S7.874.746 7.064 2.112C6.008 3.892 5.306 6.762 5.306 10s.702 6.108 1.758 7.888C7.874 19.254 8.919 20 10 20c.832 0 1.634-.429 2.327-1.247.889-1.05 1.617-2.778 2.018-4.895a.613.613 0 0 0-1.204-.227z"/>
</svg>
